<?xml version="1.0" standalone="no"?>
<!DOCTYPE svg PUBLIC "-//W3C//DTD SVG 20010904//EN"
 "http://www.w3.org/TR/2001/REC-SVG-20010904/DTD/svg10.dtd">
<svg version="1.0" xmlns="http://www.w3.org/2000/svg"
 width="113.000000pt" height="113.000000pt" viewBox="0 0 113.000000 113.000000"
 preserveAspectRatio="xMidYMid meet">
<metadata>
Created by potrace 1.14, written by Peter Selinger 2001-2017
</metadata>
<g transform="translate(0.000000,113.000000) scale(0.100000,-0.100000)"
fill="#000000" stroke="none">
<path d="M899 986 c-2 -2 -22 -7 -44 -10 -126 -20 -435 -136 -435 -163 0 -4
18 -26 41 -49 l40 -41 89 38 c91 39 234 84 305 95 22 3 47 8 55 9 8 2 18 4 21
4 3 1 6 28 7 61 l1 60 -38 0 c-21 0 -40 -2 -42 -4z"/>
<path d="M159 934 c-1 -11 -1 -50 -1 -88 l-1 -68 324 -324 324 -323 87 2 87 1
-205 206 c-113 113 -298 297 -410 409 -140 139 -204 197 -205 185z"/>
<path d="M950 783 c-124 -21 -380 -104 -380 -123 0 -3 20 -25 44 -49 l44 -43
91 32 c50 18 94 31 97 28 3 -3 5 -61 5 -130 l0 -124 63 -63 64 -64 0 272 c0
149 -1 270 -2 270 0 -1 -12 -4 -26 -6z"/>
<path d="M159 640 c0 -14 -2 -133 -2 -266 l-2 -241 63 0 c50 0 62 3 63 16 1 9
1 101 1 205 l0 188 -61 62 c-56 56 -61 59 -62 36z"/>
</g>
</svg>
