<svg id="Layer_1" data-name="Layer 1" xmlns="http://www.w3.org/2000/svg" viewBox="0 0 300 50"><defs><style>.cls-1,.cls-2{fill:#e2e3e4;}.cls-2{stroke:#e2e3e4;stroke-miterlimit:10;stroke-width:0.5px;}</style></defs><path class="cls-1" d="M144.22,27.68h0c.3,2.58,2.27,4.32,6,4.32,3.95,0,5.89-1.75,5.89-4.28,0-1.91-.82-3.41-5-4.44-2.08-.51-2.57-.79-2.57-1.52s.55-1.07,1.46-1.07c1.39,0,1.76.73,1.87,1.46h3.81c-.19-2.13-1.78-4.1-5.67-4.1s-5.41,1.89-5.41,4.15c0,1.81.79,3.26,4.76,4.22,2.13.51,2.72.84,2.72,1.72s-.55,1.2-1.74,1.2-2.09-.49-2.32-1.66Zm-15.66,4.07h9.87l.42-2.92h-6.34V18.3h-3.95Zm-11.07,0h4V18.3h-4Zm-14.25-5.54c.55-1.93,1.06-3.85,1.37-5.3h.06c.3,1.31.82,3.19,1.45,5.3Zm3.57,2.92.82,2.62h4.12L107.33,18.3h-5.11L98,31.75h3.84l.78-2.62ZM87,31.75H90.9V21.22h3.82V18.3H83.11v2.92H87Zm-9.91-8.36H70.92V21.22h6.39V18.3H67.13V31.75H77.32l.44-2.92H70.92V26.31h6.13ZM52,21.15h1.55c2.16,0,3,1.5,3,3.73,0,2.52-.87,4-3,4H52Zm-4,10.6h5.72c4.41,0,6.82-3,6.82-6.87s-2.48-6.58-6.76-6.58H48.07Z"/><path class="cls-2" d="M251.71,28.63c0-2.88-1.17-3.58-2.65-3.83a3.07,3.07,0,0,0,2.87-3.28c0-2.41-1.74-3.52-4.16-3.52h-4.53V31.75h.41V25h4c3.07,0,3.69,1.27,3.69,3.69v.18a13.44,13.44,0,0,0,.14,2.87h.43a10.33,10.33,0,0,1-.18-2.87Zm-4.23-4h-3.83V18.35h4.12c2.4,0,3.75,1.19,3.75,3.19C251.52,24,249.66,24.64,247.48,24.64Z"/><polygon class="cls-2" points="236 24.29 228.52 24.29 228.52 18.35 236.39 18.35 236.39 18 228.13 18 228.13 31.75 236.59 31.75 236.66 31.4 228.52 31.4 228.52 24.64 236 24.64 236 24.29"/><polygon class="cls-2" points="216.73 31.75 217.12 31.75 217.12 18.35 222 18.35 222 18 211.87 18 211.87 18.35 216.73 18.35 216.73 31.75"/><polygon class="cls-2" points="201.52 31.75 201.91 31.75 201.91 18.35 206.8 18.35 206.8 18 196.66 18 196.66 18.35 201.52 18.35 201.52 31.75"/><path class="cls-2" d="M188.27,18h-.41l-5.28,13.75H183l2.06-5.35h6.15l2.13,5.35h.43Zm-3.09,8.05c1.37-3.58,2.72-7.13,2.85-7.64h0c.28.68,1.25,3.28,3,7.64Z"/><path class="cls-2" d="M175.58,31.75H176V18h-.62c-2.11,4.79-5.45,12.17-5.94,13.3h0c-.59-1.33-3.61-8.16-5.84-13.3h-.63V31.75h.39V25.58c0-2.35,0-6.41,0-7.25h0c.71,1.78,3.83,8.91,5.82,13.42h.49c1.86-4.1,5.3-11.78,6-13.42h0c-.08,1.31,0,3.91,0,6.7Z"/></svg>