<svg id="Layer_1" data-name="Layer 1" xmlns="http://www.w3.org/2000/svg" viewBox="0 0 300 50"><defs><style>.cls-1,.cls-2{fill:#e2e3e4;}.cls-2{stroke:#e2e3e4;stroke-miterlimit:10;stroke-width:0.5px;}</style></defs><path class="cls-1" d="M127.12,27.77h0c.3,2.59,2.27,4.33,6,4.33,3.95,0,5.9-1.76,5.9-4.28,0-1.92-.82-3.41-5-4.44-2.07-.51-2.57-.8-2.57-1.53s.56-1.06,1.46-1.06c1.4,0,1.77.73,1.87,1.45h3.81c-.19-2.12-1.78-4.09-5.67-4.09-3.74,0-5.4,1.89-5.4,4.14,0,1.82.79,3.26,4.76,4.22,2.12.51,2.72.85,2.72,1.73s-.55,1.2-1.74,1.2-2.1-.49-2.32-1.67Zm-13.58-1.46c.55-1.93,1.06-3.85,1.38-5.3h0c.3,1.31.82,3.19,1.45,5.3Zm3.57,2.92.82,2.62h4.12L117.63,18.4h-5.1l-4.26,13.45h3.84l.78-2.62Zm-14.88-5.75H96.1V21.32h6.39V18.4H92.31V31.85H102.5l.44-2.92H96.1V26.4h6.13Zm-25-2.23h1.55c2.16,0,3,1.5,3,3.72,0,2.52-.87,4-3,4H77.2Zm-4,10.6H79c4.41,0,6.83-3,6.83-6.88S83.31,18.4,79,18.4H73.25Zm-11.07,0h3.95V18.4H62.18Z"/><polygon class="cls-2" points="237.16 24.39 229.67 24.39 229.67 18.45 237.54 18.45 237.54 18.1 229.28 18.1 229.28 31.85 237.74 31.85 237.82 31.5 229.67 31.5 229.67 24.74 237.16 24.74 237.16 24.39"/><polygon class="cls-2" points="214.56 31.85 214.96 31.85 214.96 25.07 222.32 25.07 222.32 24.72 214.96 24.72 214.96 18.45 222.81 18.45 222.81 18.1 214.56 18.1 214.56 31.85"/><rect class="cls-2" x="206.27" y="18.1" width="0.39" height="13.75"/><polygon class="cls-2" points="191.94 31.85 199.97 31.85 200.11 31.5 192.33 31.5 192.33 18.1 191.94 18.1 191.94 31.85"/><polygon class="cls-2" points="154.82 31.85 155.21 31.85 155.21 18.45 160.09 18.45 160.09 18.1 149.96 18.1 149.96 18.45 154.82 18.45 154.82 31.85"/><path class="cls-2" d="M170.65,17.9c-4,0-6.13,3.28-6.13,7.07,0,4,2.22,7.07,6,7.07,4.12,0,6.14-3.28,6.14-7.19S174.38,17.9,170.65,17.9Zm-.12,13.79c-3.75,0-5.6-3.24-5.6-6.76,0-3.71,2.11-6.68,5.7-6.68s5.63,3,5.63,6.63C176.26,28.66,174.34,31.69,170.53,31.69Z"/></svg>