<svg id="Layer_1" data-name="Layer 1" xmlns="http://www.w3.org/2000/svg" viewBox="0 0 300 50"><defs><style>.cls-1{fill:#fff;}</style></defs><path class="cls-1" d="M48.77,23.51H42.64V21.34H49V18.42H38.85V31.87H49L49.48,29H42.64V26.43h6.13Zm-21,8.36h3.95V18.42H27.78Zm-17,0c.58-2.59,1.42-6,1.89-8.57h0c.5,2.61,1.28,5.78,1.87,8.57h4L22,18.42H18.18C17.85,20.49,17,25,16.63,27.77h-.06c-.47-2.89-1.36-6.63-2-9.35H11.1C10.41,21.57,9.6,25,9,27.94H9a89.5,89.5,0,0,0-1.37-9.52H3.46L6.7,31.87Z"/><path class="cls-1" d="M293,29.78h-.4v2.09h.4ZM293,28v-.1a3.75,3.75,0,0,1,1.56-2.91c1.48-1.37,2-2.26,2-3.77a3.18,3.18,0,0,0-3.42-3.24,3.54,3.54,0,0,0-3.75,3.32h.39a3.18,3.18,0,0,1,3.36-3,2.82,2.82,0,0,1,3,2.93c0,1-.16,1.95-1.74,3.38s-1.76,2.42-1.76,3.32v0Zm-19,.35h0c.39,2.27,1.91,3.77,4.75,3.77s4.45-1.41,4.45-3.65c0-1.92-.74-3.13-4.4-4.06-2.65-.69-3.71-1.45-3.71-3.23s1.47-2.85,3.6-2.85c2.28,0,3.51,1.15,3.86,3h.4c-.22-1.52-1.24-3.32-4.24-3.32-2.48,0-4,1.23-4,3.24S276,24,278.78,24.75c3.18.86,4,1.77,4,3.71s-1.56,3.26-4,3.26a4,4,0,0,1-4.36-3.42Zm-6.3-3.89h-7.48V18.48h7.87v-.36h-8.26V31.87h8.45l.08-.35h-8.14V24.77h7.48Zm-31.59-5.93h4.12c2.41,0,3.75,1.19,3.75,3.18,0,2.42-1.85,3.11-4,3.11h-3.83Zm4,6.66c3.06,0,3.69,1.27,3.69,3.69V29a13.44,13.44,0,0,0,.14,2.87h.43a10.33,10.33,0,0,1-.18-2.87v-.25c0-2.87-1.17-3.57-2.66-3.83a3.07,3.07,0,0,0,2.87-3.28c0-2.4-1.73-3.52-4.16-3.52h-4.53V31.87h.41V25.14Zm-12.69,6.73h.39V18.12h-.39Zm-19.17,0c1.15-3.8,3.73-12.34,4-13.45h0c.2.84,2.89,9.94,3.87,13.45h.57l4.25-13.75h-.41c-1.07,3.46-3.63,11.84-4.1,13.38h0c-.17-.74-2.87-9.92-3.87-13.38H212c-1,3.42-3.63,12.13-4,13.4h0c-.17-.88-2.67-9.65-3.73-13.4h-.41l3.87,13.75Zm-28.83,0v-7c0-2.52,0-4.59-.06-6.42l0,.06,9.1,13.41h.56V18.12h-.39V25c0,2.23,0,6.13.06,6.5l0-.06c-.72-1.11-6.66-9.84-9-13.34H179V31.87Zm-7.63-7.46h-7.48V18.48h7.87v-.36h-8.27V31.87h8.46l.08-.35h-8.14V24.77h7.48ZM149.2,31.87h.39V25.1H157v-.35h-7.36V18.48h7.85v-.36H149.2Zm-14.72,0h.39V25.1h7.36v-.35h-7.36V18.48h7.85v-.36h-8.24Zm-15-5.7c1.36-3.57,2.71-7.13,2.85-7.64h0c.27.69,1.25,3.29,3,7.64Zm6,.35,2.13,5.35H128l-5.49-13.75h-.41l-5.27,13.75h.41l2.05-5.35Zm-25,5.35h.39V24.71h9.06v7.16h.39V18.12h-.39v6.24H100.8V18.12h-.39ZM93,28.24h0a4.73,4.73,0,0,1-4.79,3.46c-3.83,0-5.53-3.2-5.53-6.62,0-3.62,1.68-6.78,5.63-6.78A4.6,4.6,0,0,1,93,22h.41a4.92,4.92,0,0,0-5.08-4c-4.1,0-6,3.26-6,7.15s1.94,7,5.92,7a5.08,5.08,0,0,0,5.22-3.83ZM67,28.3h0c.39,2.27,1.91,3.77,4.74,3.77s4.46-1.41,4.46-3.65c0-1.92-.74-3.13-4.4-4.06-2.65-.69-3.71-1.45-3.71-3.23s1.47-2.85,3.6-2.85,3.51,1.15,3.86,3h.39c-.21-1.52-1.23-3.32-4.23-3.32-2.48,0-4,1.23-4,3.24S69,24,71.75,24.75c3.19.86,4,1.77,4,3.71s-1.56,3.26-4,3.26A4,4,0,0,1,67.4,28.3Z"/><path class="cls-1" d="M293,29.78h-.4v2.09h.4ZM293,28v-.1a3.75,3.75,0,0,1,1.56-2.91c1.48-1.37,2-2.26,2-3.77a3.18,3.18,0,0,0-3.42-3.24,3.54,3.54,0,0,0-3.75,3.32h.39a3.18,3.18,0,0,1,3.36-3,2.82,2.82,0,0,1,3,2.93c0,1-.16,1.95-1.74,3.38s-1.76,2.42-1.76,3.32v0Zm-19,.35h0c.39,2.27,1.91,3.77,4.75,3.77s4.45-1.41,4.45-3.65c0-1.92-.74-3.13-4.4-4.06-2.65-.69-3.71-1.45-3.71-3.23s1.47-2.85,3.6-2.85c2.28,0,3.51,1.15,3.86,3h.4c-.22-1.52-1.24-3.32-4.24-3.32-2.48,0-4,1.23-4,3.24S276,24,278.78,24.75c3.18.86,4,1.77,4,3.71s-1.56,3.26-4,3.26a4,4,0,0,1-4.36-3.42Zm-6.3-3.89h-7.48V18.48h7.87v-.36h-8.26V31.87h8.45l.08-.35h-8.14V24.77h7.48Zm-31.59-5.93h4.12c2.41,0,3.75,1.19,3.75,3.18,0,2.42-1.85,3.11-4,3.11h-3.83Zm4,6.66c3.06,0,3.69,1.27,3.69,3.69V29a13.44,13.44,0,0,0,.14,2.87h.43a10.33,10.33,0,0,1-.18-2.87v-.25c0-2.87-1.17-3.57-2.66-3.83a3.07,3.07,0,0,0,2.87-3.28c0-2.4-1.73-3.52-4.16-3.52h-4.53V31.87h.41V25.14Zm-12.69,6.73h.39V18.12h-.39Zm-19.17,0c1.15-3.8,3.73-12.34,4-13.45h0c.2.84,2.89,9.94,3.87,13.45h.57l4.25-13.75h-.41c-1.07,3.46-3.63,11.84-4.1,13.38h0c-.17-.74-2.87-9.92-3.87-13.38H212c-1,3.42-3.63,12.13-4,13.4h0c-.17-.88-2.67-9.65-3.73-13.4h-.41l3.87,13.75Zm-28.83,0v-7c0-2.52,0-4.59-.06-6.42l0,.06,9.1,13.41h.56V18.12h-.39V25c0,2.23,0,6.13.06,6.5l0-.06c-.72-1.11-6.66-9.84-9-13.34H179V31.87Zm-7.63-7.46h-7.48V18.48h7.87v-.36h-8.27V31.87h8.46l.08-.35h-8.14V24.77h7.48ZM149.2,31.87h.39V25.1H157v-.35h-7.36V18.48h7.85v-.36H149.2Zm-14.72,0h.39V25.1h7.36v-.35h-7.36V18.48h7.85v-.36h-8.24Zm-15-5.7c1.36-3.57,2.71-7.13,2.85-7.64h0c.27.69,1.25,3.29,3,7.64Zm6,.35,2.13,5.35H128l-5.49-13.75h-.41l-5.27,13.75h.41l2.05-5.35Zm-25,5.35h.39V24.71h9.06v7.16h.39V18.12h-.39v6.24H100.8V18.12h-.39ZM93,28.24h0a4.73,4.73,0,0,1-4.79,3.46c-3.83,0-5.53-3.2-5.53-6.62,0-3.62,1.68-6.78,5.63-6.78A4.6,4.6,0,0,1,93,22h.41a4.92,4.92,0,0,0-5.08-4c-4.1,0-6,3.26-6,7.15s1.94,7,5.92,7a5.08,5.08,0,0,0,5.22-3.83ZM67,28.3h0c.39,2.27,1.91,3.77,4.74,3.77s4.46-1.41,4.46-3.65c0-1.92-.74-3.13-4.4-4.06-2.65-.69-3.71-1.45-3.71-3.23s1.47-2.85,3.6-2.85,3.51,1.15,3.86,3h.39c-.21-1.52-1.23-3.32-4.23-3.32-2.48,0-4,1.23-4,3.24S69,24,71.75,24.75c3.19.86,4,1.77,4,3.71s-1.56,3.26-4,3.26A4,4,0,0,1,67.4,28.3Z"/></svg>