<svg id="Layer_1" data-name="Layer 1" xmlns="http://www.w3.org/2000/svg" viewBox="0 0 300 50"><defs><style>.cls-1{fill:#fff;}.cls-2{fill:none;stroke:#fff;stroke-miterlimit:3.91;stroke-width:0.25px;}</style></defs><path class="cls-1" d="M102.59,21c2.06,0,2.78,1.71,2.78,4.16,0,2.29-.68,4.12-2.72,4.12s-2.77-1.72-2.77-4.19.8-4.09,2.71-4.09m.13-2.84c-4.51,0-6.91,3.12-6.91,7s2.19,7,6.71,7,6.9-3.19,6.9-7c0-4-2.46-7-6.7-7M78.6,31.88h3.92V27.71l1.19-1.23,3.22,5.4h4.62l-5.11-7.94,4.94-5.52H86.71c-1.33,1.78-3.31,4.24-4.19,5.47V18.42H78.6ZM64.36,26.34c.54-1.94,1.06-3.86,1.37-5.31h0c.31,1.32.82,3.19,1.46,5.31Zm3.57,2.92.81,2.62h4.12L68.44,18.42h-5.1L59.09,31.88h3.84l.78-2.62ZM42,31.88h3.91V27.71l1.19-1.23,3.22,5.4H55l-5.11-7.94,5-5.52H50.14c-1.33,1.78-3.32,4.24-4.2,5.47V18.42H42Z"/><path class="cls-1" d="M254.33,29.79h-.39v2.09h.39Zm0-1.84v-.1a3.75,3.75,0,0,1,1.56-2.91c1.49-1.37,2-2.26,2-3.77a3.19,3.19,0,0,0-3.42-3.24,3.53,3.53,0,0,0-3.75,3.32h.39a3.17,3.17,0,0,1,3.36-3,2.81,2.81,0,0,1,3,2.93c0,1-.15,1.95-1.73,3.38s-1.76,2.42-1.76,3.32v0ZM244,24.41h-7.48V18.48h7.87v-.35h-8.27V31.88h8.46l.08-.36h-8.14V24.77H244Zm-22.85-5.93h4.18c2.46,0,3.73,1.5,3.73,3.36,0,2.5-1.79,3.32-3.87,3.32h-4Zm-.39,13.4h.39V25.51h4c2.73,0,4.33-1.29,4.33-3.69s-1.74-3.69-4.12-3.69h-4.59ZM204.59,28.3h0c.39,2.27,1.91,3.77,4.74,3.77s4.46-1.41,4.46-3.65c0-1.92-.75-3.13-4.4-4.06-2.66-.69-3.71-1.45-3.71-3.23s1.47-2.85,3.59-2.85c2.29,0,3.52,1.15,3.87,3h.39c-.21-1.52-1.23-3.32-4.24-3.32-2.48,0-4,1.23-4,3.24s1.31,2.83,4.08,3.58c3.19.86,4,1.77,4,3.71s-1.57,3.26-4,3.26A4,4,0,0,1,205,28.3ZM188.23,18.13v8.76c0,3.95,2.48,5.18,4.92,5.18,2.83,0,4.92-1.31,4.92-5.43V18.13h-.39v8.59c0,3.28-1.54,5-4.49,5-2.37,0-4.57-1.27-4.57-5V18.13ZM171.89,31.88h.4V18.13h-.63c-2.11,4.78-5.45,12.16-5.94,13.3h0c-.58-1.33-3.61-8.17-5.84-13.3h-.62V31.88h.39V25.7c0-2.34,0-6.4,0-7.24h0c.7,1.77,3.83,8.9,5.82,13.42h.49c1.85-4.11,5.29-11.78,5.95-13.42h0c-.07,1.31,0,3.9,0,6.7Zm-27.64-5.71c1.36-3.57,2.71-7.13,2.85-7.63h0c.27.68,1.25,3.28,3,7.63Zm6,.35,2.13,5.36h.43l-5.49-13.75h-.41l-5.27,13.75h.41l2.05-5.36Zm-24.83,5.36V24.82c0-2.52,0-4.59-.06-6.42l0,.06,9.1,13.42h.56V18.13h-.39V25c0,2.23,0,6.13.06,6.5l0-.05c-.72-1.12-6.66-9.85-9-13.34H125V31.88Z"/><path class="cls-2" d="M254.33,29.79h-.39v2.09h.39Zm0-1.84v-.1a3.75,3.75,0,0,1,1.56-2.91c1.49-1.37,2-2.26,2-3.77a3.19,3.19,0,0,0-3.42-3.24,3.53,3.53,0,0,0-3.75,3.32h.39a3.17,3.17,0,0,1,3.36-3,2.81,2.81,0,0,1,3,2.93c0,1-.15,1.95-1.73,3.38s-1.76,2.42-1.76,3.32v0ZM244,24.41h-7.48V18.48h7.87v-.35h-8.27V31.88h8.46l.08-.36h-8.14V24.77H244Zm-22.85-5.93h4.18c2.46,0,3.73,1.5,3.73,3.36,0,2.5-1.79,3.32-3.87,3.32h-4Zm-.39,13.4h.39V25.51h4c2.73,0,4.33-1.29,4.33-3.69s-1.74-3.69-4.12-3.69h-4.59ZM204.59,28.3h0c.39,2.27,1.91,3.77,4.74,3.77s4.46-1.41,4.46-3.65c0-1.92-.75-3.13-4.4-4.06-2.66-.69-3.71-1.45-3.71-3.23s1.47-2.85,3.59-2.85c2.29,0,3.52,1.15,3.87,3h.39c-.21-1.52-1.23-3.32-4.24-3.32-2.48,0-4,1.23-4,3.24s1.31,2.83,4.08,3.58c3.19.86,4,1.77,4,3.71s-1.57,3.26-4,3.26A4,4,0,0,1,205,28.3ZM188.23,18.13v8.76c0,3.95,2.48,5.18,4.92,5.18,2.83,0,4.92-1.31,4.92-5.43V18.13h-.39v8.59c0,3.28-1.54,5-4.49,5-2.37,0-4.57-1.27-4.57-5V18.13ZM171.89,31.88h.4V18.13h-.63c-2.11,4.78-5.45,12.16-5.94,13.3h0c-.58-1.33-3.61-8.17-5.84-13.3h-.62V31.88h.39V25.7c0-2.34,0-6.4,0-7.24h0c.7,1.77,3.83,8.9,5.82,13.42h.49c1.85-4.11,5.29-11.78,5.95-13.42h0c-.07,1.31,0,3.9,0,6.7Zm-27.64-5.71c1.36-3.57,2.71-7.13,2.85-7.63h0c.27.68,1.25,3.28,3,7.63Zm6,.35,2.13,5.36h.43l-5.49-13.75h-.41l-5.27,13.75h.41l2.05-5.36Zm-24.83,5.36V24.82c0-2.52,0-4.59-.06-6.42l0,.06,9.1,13.42h.56V18.13h-.39V25c0,2.23,0,6.13.06,6.5l0-.05c-.72-1.12-6.66-9.85-9-13.34H125V31.88Z"/></svg>