<svg id="Layer_1" data-name="Layer 1" xmlns="http://www.w3.org/2000/svg" viewBox="0 0 300 50"><defs><style>.cls-1{fill:#fff;}</style></defs><path class="cls-1" d="M76.24,31.85c.58-2.6,1.42-6,1.88-8.58h0c.49,2.61,1.27,5.79,1.87,8.58h4l3.4-13.45H83.69c-.34,2.07-1.22,6.56-1.55,9.35h-.07c-.46-2.89-1.36-6.63-2-9.35H76.6c-.68,3.15-1.5,6.59-2,9.51h-.06a92.82,92.82,0,0,0-1.38-9.51H69l3.25,13.45ZM57,21c2.06,0,2.77,1.7,2.77,4.15,0,2.29-.67,4.12-2.72,4.12s-2.77-1.72-2.77-4.19S55.09,21,57,21m.13-2.84c-4.52,0-6.92,3.11-6.92,7s2.19,7,6.71,7,6.9-3.18,6.9-7c0-4-2.45-7-6.69-7M31.69,31.85h3.95v-5.5h4.11v5.5h4V18.4h-4v5H35.64v-5H31.69Z"/><path class="cls-1" d="M264.8,29.76h-.4v2.09h.4Zm0-1.84v-.1a3.72,3.72,0,0,1,1.56-2.91c1.48-1.36,2-2.26,2-3.76a3.18,3.18,0,0,0-3.42-3.25,3.54,3.54,0,0,0-3.75,3.32h.39a3.18,3.18,0,0,1,3.36-3,2.83,2.83,0,0,1,3,2.93c0,1-.16,2-1.74,3.38S264.4,27,264.4,27.88v0Zm-15.17,3.93H250V18.45h4.88V18.1H244.74v.35h4.87Zm-11.28,0h.39V18.1h-.39ZM217,18.25c3.56,0,5.63,3,5.63,6.62,0,3.79-1.92,6.82-5.72,6.82s-5.61-3.24-5.61-6.76c0-3.71,2.11-6.68,5.7-6.68m0-.35c-4,0-6.13,3.28-6.13,7.07,0,4,2.23,7.07,6,7.07,4.12,0,6.13-3.28,6.13-7.18s-2.29-7-6-7m-22.61.55h3.71c4,0,6.16,2.68,6.16,6.25,0,4.32-2.42,6.8-6.1,6.8h-3.77ZM194,31.85h4.12c4.26,0,6.55-3,6.55-7.17,0-3.73-2.35-6.58-6.51-6.58H194Zm-15.49-7.46h-7.48V18.45h7.87V18.1h-8.26V31.85h8.46l.07-.35h-8.14V24.74h7.48Zm-27,7.46c1.15-3.81,3.73-12.35,4-13.46h0c.2.84,2.89,9.94,3.87,13.46h.57l4.25-13.75h-.41c-1.07,3.46-3.63,11.83-4.1,13.38h0c-.17-.75-2.87-9.92-3.87-13.38h-.58c-1,3.42-3.63,12.13-4,13.4h0c-.17-.88-2.67-9.65-3.73-13.4h-.41L151,31.85Zm-24.36-13.6c3.55,0,5.62,3,5.62,6.62,0,3.79-1.91,6.82-5.72,6.82s-5.61-3.24-5.61-6.76c0-3.71,2.11-6.68,5.71-6.68m0-.35c-4,0-6.14,3.28-6.14,7.07,0,4,2.23,7.07,6,7.07,4.12,0,6.13-3.28,6.13-7.18s-2.28-7-6-7m-22.61.55h3.71c4,0,6.15,2.68,6.15,6.25,0,4.32-2.42,6.8-6.09,6.8h-3.77Zm-.39,13.4h4.12c4.26,0,6.54-3,6.54-7.17,0-3.73-2.34-6.58-6.5-6.58h-4.16Z"/><path class="cls-1" d="M264.8,29.76h-.4v2.09h.4Zm0-1.84v-.1a3.72,3.72,0,0,1,1.56-2.91c1.48-1.36,2-2.26,2-3.76a3.18,3.18,0,0,0-3.42-3.25,3.54,3.54,0,0,0-3.75,3.32h.39a3.18,3.18,0,0,1,3.36-3,2.83,2.83,0,0,1,3,2.93c0,1-.16,2-1.74,3.38S264.4,27,264.4,27.88v0Zm-15.17,3.93H250V18.45h4.88V18.1H244.74v.35h4.87Zm-11.28,0h.39V18.1h-.39ZM217,18.25c3.56,0,5.63,3,5.63,6.62,0,3.79-1.92,6.82-5.72,6.82s-5.61-3.24-5.61-6.76C211.31,21.22,213.42,18.25,217,18.25Zm0-.35c-4,0-6.13,3.28-6.13,7.07,0,4,2.23,7.07,6,7.07,4.12,0,6.13-3.28,6.13-7.18S220.76,17.9,217,17.9Zm-22.61.55h3.71c4,0,6.16,2.68,6.16,6.25,0,4.32-2.42,6.8-6.1,6.8h-3.77ZM194,31.85h4.12c4.26,0,6.55-3,6.55-7.17,0-3.73-2.35-6.58-6.51-6.58H194Zm-15.49-7.46h-7.48V18.45h7.87V18.1h-8.26V31.85h8.46l.07-.35h-8.14V24.74h7.48Zm-27,7.46c1.15-3.81,3.73-12.35,4-13.46h0c.2.84,2.89,9.94,3.87,13.46h.57l4.25-13.75h-.41c-1.07,3.46-3.63,11.83-4.1,13.38h0c-.17-.75-2.87-9.92-3.87-13.38h-.58c-1,3.42-3.63,12.13-4,13.4h0c-.17-.88-2.67-9.65-3.73-13.4h-.41L151,31.85Zm-24.36-13.6c3.55,0,5.62,3,5.62,6.62,0,3.79-1.91,6.82-5.72,6.82s-5.61-3.24-5.61-6.76C121.43,21.22,123.54,18.25,127.14,18.25Zm0-.35c-4,0-6.14,3.28-6.14,7.07,0,4,2.23,7.07,6,7.07,4.12,0,6.13-3.28,6.13-7.18S130.89,17.9,127.16,17.9Zm-22.61.55h3.71c4,0,6.15,2.68,6.15,6.25,0,4.32-2.42,6.8-6.09,6.8h-3.77Zm-.39,13.4h4.12c4.26,0,6.54-3,6.54-7.17,0-3.73-2.34-6.58-6.5-6.58h-4.16Z"/></svg>