<?xml version="1.0" encoding="utf-8"?>
<!-- Generator: Adobe Illustrator 22.0.1, SVG Export Plug-In . SVG Version: 6.00 Build 0)  -->
<svg version="1.1" id="Layer_1" xmlns="http://www.w3.org/2000/svg" xmlns:xlink="http://www.w3.org/1999/xlink" x="0px" y="0px"
	 viewBox="0 0 351 350" style="enable-background:new 0 0 351 350;" xml:space="preserve">
<style type="text/css">
	.st0{fill:#FFD800;}
	.st1{fill:#FFFFFF;}
</style>
<g>
	<defs>
		<rect id="SVGID_1_" width="800" height="350"/>
	</defs>
	<clipPath id="SVGID_2_">
		<use xlink:href="#SVGID_1_"  style="overflow:visible;"/>
	</clipPath>
</g>
<g>
	<defs>
		<rect id="SVGID_3_" width="800" height="350"/>
	</defs>
	<clipPath id="SVGID_4_">
		<use xlink:href="#SVGID_3_"  style="overflow:visible;"/>
	</clipPath>
</g>
<g>
	<defs>
		<rect id="SVGID_5_" width="800" height="350"/>
	</defs>
	<clipPath id="SVGID_6_">
		<use xlink:href="#SVGID_5_"  style="overflow:visible;"/>
	</clipPath>
</g>
<g>
	<defs>
		<rect id="SVGID_7_" width="800" height="350"/>
	</defs>
	<clipPath id="SVGID_8_">
		<use xlink:href="#SVGID_7_"  style="overflow:visible;"/>
	</clipPath>
</g>
<g>
	<path class="st0" d="M266.1,107.1V79.8c-44.9,4.7-87.1,18.7-124.6,40.1l20,20C193.3,122.8,228.7,111.4,266.1,107.1"/>
	<path class="st1" d="M195.8,174.1c13.7-6.4,28.2-11.6,43.1-15.4v58.5l27.2,27.2v-90.9v-12.8v-14.6c-32.3,4-62.8,13.5-90.6,27.7
		L195.8,174.1z"/>
	<polygon class="st1" points="84.9,152.5 84.9,270.2 112.1,270.2 112.1,179.7 	"/>
	<polygon class="st1" points="266.1,270.2 84.9,89.1 84.9,126.9 228.2,270.2 	"/>
</g>
</svg>
