<?xml version="1.0" encoding="utf-8"?>
<!-- Generator: Adobe Illustrator 22.0.1, SVG Export Plug-In . SVG Version: 6.00 Build 0)  -->
<svg version="1.1" id="Layer_1" xmlns="http://www.w3.org/2000/svg" xmlns:xlink="http://www.w3.org/1999/xlink" x="0px" y="0px"
	 viewBox="0 0 800 350" style="enable-background:new 0 0 800 350;" xml:space="preserve">
<style type="text/css">
	.st0{fill:#FFFFFF;}
	.st1{clip-path:url(#SVGID_2_);fill:#FFFFFF;}
	.st2{clip-path:url(#SVGID_4_);fill:#FFFFFF;}
	.st3{clip-path:url(#SVGID_6_);fill:#FFFFFF;}
	.st4{clip-path:url(#SVGID_6_);fill:#FFD800;}
	.st5{clip-path:url(#SVGID_8_);fill:#FFFFFF;}
</style>
<rect x="289" y="189.8" class="st0" width="2.2" height="80.5"/>
<g>
	<defs>
		<rect id="SVGID_1_" width="800" height="350"/>
	</defs>
	<clipPath id="SVGID_2_">
		<use xlink:href="#SVGID_1_"  style="overflow:visible;"/>
	</clipPath>
	<path class="st1" d="M313.6,270.2v-80.5h3.5c13.4,20.5,46.9,71.6,51,78.1l0.2,0.3c-0.3-2.2-0.3-25-0.3-38.1v-40.4h2.2v80.5H367
		c-12.9-19.8-46.3-70.9-51.4-78.5l-0.2-0.3c0.6,10.7,0.3,22.9,0.3,37.6v41.3H313.6z"/>
</g>
<polygon class="st0" points="382,189.8 382,191.8 409.4,191.8 409.4,270.2 411.6,270.2 411.6,191.8 439.2,191.8 439.2,189.8 "/>
<polygon class="st0" points="451.5,189.8 451.5,270.2 499.2,270.2 499.7,268.2 453.7,268.2 453.7,228.6 495.9,228.6 495.9,226.6 
	453.7,226.6 453.7,191.8 498.1,191.8 498.1,189.8 "/>
<g>
	<defs>
		<rect id="SVGID_3_" width="800" height="350"/>
	</defs>
	<clipPath id="SVGID_4_">
		<use xlink:href="#SVGID_3_"  style="overflow:visible;"/>
	</clipPath>
	<path class="st2" d="M516.9,230.8v39.4h-2.3v-80.5h25.6c13.7,0,23.5,6.5,23.5,20.6c0,9.5-4.4,17.1-16.2,19.2
		c8.4,1.5,15,5.6,15,22.4v1.5c0,10.6,0.2,14.6,1,16.8h-2.4c-0.9-3.7-0.8-8.7-0.8-16.8v-1c0-14.2-3.5-21.6-20.8-21.6H516.9z
		 M516.9,228.6h21.6c12.3,0,22.8-4,22.8-18.2c0-11.7-7.6-18.6-21.2-18.6h-23.2V228.6z"/>
</g>
<rect x="583.7" y="189.8" class="st0" width="2.2" height="80.5"/>
<polygon class="st0" points="608.3,189.8 608.3,270.2 656,270.2 656.5,268.2 610.5,268.2 610.5,228.6 652.7,228.6 652.7,226.6 
	610.5,226.6 610.5,191.8 654.9,191.8 654.9,189.8 "/>
<g>
	<defs>
		<rect id="SVGID_5_" width="800" height="350"/>
	</defs>
	<clipPath id="SVGID_6_">
		<use xlink:href="#SVGID_5_"  style="overflow:visible;"/>
	</clipPath>
	<path class="st3" d="M673.6,230.8v39.4h-2.3v-80.5h25.6c13.7,0,23.5,6.5,23.5,20.6c0,9.5-4.4,17.1-16.2,19.2
		c8.4,1.5,15,5.6,15,22.4v1.5c0,10.6,0.2,14.6,1,16.8h-2.4c-0.9-3.7-0.8-8.7-0.8-16.8v-1c0-14.2-3.5-21.6-20.8-21.6H673.6z
		 M673.6,228.6h21.6c12.3,0,22.8-4,22.8-18.2c0-11.7-7.6-18.6-21.2-18.6h-23.2V228.6z"/>
	<path class="st4" d="M260.8,107.1V79.8c-44.9,4.7-87.1,18.7-124.6,40.1l20,20C188.1,122.8,223.4,111.4,260.8,107.1"/>
	<path class="st3" d="M190.6,174.1c13.7-6.4,28.2-11.6,43.1-15.4v58.5l27.2,27.2v-90.9v-12.8v-14.6c-32.3,4-62.8,13.5-90.6,27.7
		L190.6,174.1z"/>
</g>
<polygon class="st0" points="79.6,152.5 79.6,270.2 106.8,270.2 106.8,179.7 "/>
<polygon class="st0" points="260.8,270.2 79.6,89.1 79.6,126.9 222.9,270.2 "/>
<g>
	<defs>
		<rect id="SVGID_7_" width="800" height="350"/>
	</defs>
	<clipPath id="SVGID_8_">
		<use xlink:href="#SVGID_7_"  style="overflow:visible;"/>
	</clipPath>
	<path class="st5" d="M417.4,99.2c-15.9,0-28.8,12.9-28.8,28.8s12.9,28.8,28.8,28.8c15.9,0,28.8-12.9,28.8-28.8
		S433.3,99.2,417.4,99.2 M417.4,175.9c-26.4,0-48-21.5-48-48c0-26.4,21.5-48,48-48c26.4,0,48,21.5,48,48
		C465.4,154.4,443.9,175.9,417.4,175.9"/>
	<path class="st5" d="M700.3,146.6c-5.3,6.4-13.3,10.6-22.2,10.6c-15.9,0-28.8-12.9-28.8-28.8c0-13.4,9.2-24.7,21.7-27.9V81
		c-23.1,3.4-40.9,23.3-40.9,47.4c0,26.4,21.5,48,48,48c17,0,32-9,40.5-22.4L700.3,146.6z"/>
	<path class="st5" d="M684.6,80.9v19.5c7.5,1.7,14,6.3,18,12.7l17.8-7.6C713.2,92.3,700,82.9,684.6,80.9"/>
</g>
<rect x="289" y="79.8" class="st0" width="18.8" height="96.3"/>
<polygon class="st0" points="332.6,126.5 373,79.8 348.1,79.8 317,115.8 317,137.1 351.4,176.1 376.5,176.1 "/>
<polygon class="st0" points="497.5,176.1 514.8,176.1 553.8,79.8 533.5,79.8 506.2,147.3 479,79.8 458.7,79.8 496,172.4 "/>
<polygon class="st0" points="551.3,176.1 584.1,102.8 616.6,176.1 637.2,176.1 594.5,79.8 573.8,79.8 530.7,176.1 "/>
</svg>
