<svg id="Layer_1" data-name="Layer 1" xmlns="http://www.w3.org/2000/svg" viewBox="0 0 300 50"><defs><style>.cls-1,.cls-2{fill:#e2e3e4;}.cls-2{stroke:#e2e3e4;stroke-miterlimit:10;stroke-width:0.5px;}</style></defs><path class="cls-1" d="M128.57,30.65V26a.85.85,0,0,1,.13-.51l4.66-8.26h-4.11c-.79,1.73-1.93,4.14-2.47,5.62-.62-1.54-1.59-3.72-2.45-5.62h-4.45l4.6,8.28a.81.81,0,0,1,.14.51v4.66Zm-21.72,0h4V20.12h3.81V17.2H103v2.92h3.84ZM93,30.65h4V17.2H93Zm-16.17,0h9.87l.43-2.92H80.77V17.2h-4ZM62.57,25.11c.54-1.93,1.06-3.85,1.37-5.3H64c.31,1.31.82,3.19,1.46,5.3ZM66.14,28,67,30.65h4.12L66.65,17.2h-5.1L57.3,30.65h3.84L61.92,28ZM39.71,17.2v7.89c0,4.37,2.47,5.81,6,5.81s6.07-1.36,6.07-5.83V17.2h-4v8.27c0,1.8-.75,2.59-2.05,2.59s-2.14-.66-2.14-2.59V17.2ZM26.5,19.79c2.06,0,2.78,1.7,2.78,4.16,0,2.29-.68,4.11-2.73,4.11s-2.77-1.72-2.77-4.19.81-4.08,2.72-4.08M26.63,17c-4.51,0-6.91,3.11-6.91,7s2.19,7,6.71,7,6.9-3.18,6.9-7c0-4-2.46-7-6.7-7m.84,13.13,4.72,3.22,2-2.37L30.6,28.5Z"/><path class="cls-2" d="M270.63,30.65v-7c0-2.52,0-4.59-.06-6.43l0,.06c.9,1.31,6.82,10,9.1,13.42h.57V16.9h-.39v6.9c0,2.22,0,6.13.06,6.5l0-.06c-.72-1.11-6.66-9.84-9-13.34h-.63V30.65Z"/><path class="cls-2" d="M257.24,16.71c-4,0-6.13,3.28-6.13,7.07s2.22,7.07,6,7.07c4.13,0,6.14-3.29,6.14-7.19S261,16.71,257.24,16.71Zm-.12,13.78c-3.75,0-5.6-3.24-5.6-6.75,0-3.71,2.11-6.68,5.7-6.68s5.63,3,5.63,6.62C262.85,27.47,260.93,30.49,257.12,30.49Z"/><rect class="cls-2" x="243.73" y="16.9" width="0.39" height="13.75"/><path class="cls-2" d="M227.59,27.08h0c.39,2.26,1.91,3.77,4.74,3.77s4.46-1.41,4.46-3.66c0-1.91-.74-3.12-4.4-4.06-2.65-.68-3.71-1.44-3.71-3.22s1.47-2.85,3.6-2.85c2.28,0,3.51,1.15,3.86,3h.39c-.21-1.53-1.23-3.32-4.23-3.32-2.48,0-4,1.23-4,3.24s1.31,2.83,4.08,3.57c3.19.86,4,1.78,4,3.71s-1.56,3.26-4,3.26A4,4,0,0,1,228,27.08Z"/><path class="cls-2" d="M212.32,27.08h0c.39,2.26,1.92,3.77,4.75,3.77s4.45-1.41,4.45-3.66c0-1.91-.74-3.12-4.39-4.06-2.66-.68-3.71-1.44-3.71-3.22s1.46-2.85,3.59-2.85c2.29,0,3.52,1.15,3.87,3h.39c-.22-1.53-1.23-3.32-4.24-3.32-2.48,0-4,1.23-4,3.24s1.31,2.83,4.08,3.57c3.18.86,4,1.78,4,3.71s-1.56,3.26-4,3.26a4,4,0,0,1-4.36-3.41Z"/><rect class="cls-2" x="205.1" y="16.9" width="0.39" height="13.75"/><path class="cls-2" d="M196.81,30.65h.39V16.9h-.62c-2.11,4.79-5.45,12.17-5.94,13.3h0C190,28.87,187,22,184.78,16.9h-.63V30.65h.4V24.48c0-2.34,0-6.41,0-7.25h0c.7,1.78,3.82,8.91,5.82,13.42h.48c1.86-4.1,5.3-11.78,6-13.42h0c-.08,1.31,0,3.91,0,6.7Z"/><path class="cls-2" d="M159.78,27.08h0c.39,2.26,1.91,3.77,4.74,3.77S169,29.44,169,27.19c0-1.91-.75-3.12-4.4-4.06-2.66-.68-3.71-1.44-3.71-3.22s1.46-2.85,3.59-2.85c2.29,0,3.52,1.15,3.87,3h.39c-.21-1.53-1.23-3.32-4.24-3.32-2.48,0-4,1.23-4,3.24s1.31,2.83,4.08,3.57c3.19.86,4,1.78,4,3.71s-1.57,3.26-4,3.26a4,4,0,0,1-4.35-3.41Z"/><path class="cls-2" d="M148.57,16.9h-.41l-5.27,13.75h.41l2-5.35h6.15l2.13,5.35h.43ZM145.49,25c1.36-3.58,2.71-7.13,2.85-7.64h0c.27.68,1.25,3.28,3,7.64Z"/></svg>