<svg id="Layer_1" data-name="Layer 1" xmlns="http://www.w3.org/2000/svg" viewBox="0 0 142.18 50"><defs><style>.cls-1{fill:#fed109;}</style></defs><path class="cls-1" d="M28,26.28H24.25v1.54h4.2l-.27,1.8H21.92V21.36h6.25v1.79H24.25v1.33H28Z"/><path class="cls-1" d="M35.65,29.62l-1.39-2.69h0l-1.41,2.69H30.23L32.8,25.5l-2.51-4.14h2.8l1.29,2.55h0l1.33-2.55h2.54l-2.51,3.89,2.66,4.37Z"/><path class="cls-1" d="M40.24,28.11l4.11-5H40.43V21.36h6.69v1.71l-3.9,4.75H47.4l-.26,1.8h-6.9Z"/><path class="cls-1" d="M55.77,26.28H52v1.54h4.2l-.27,1.8H49.67V21.36h6.25v1.79H52v1.33h3.77Z"/><path class="cls-1" d="M58.5,21.36h2.43v6.46h3.9l-.27,1.8H58.5Z"/><path class="cls-1" d="M67,21.36H69.4v6.46h3.9L73,29.62H67Z"/><path class="cls-1" d="M81.54,26.28H77.78v1.54H82l-.27,1.8H75.45V21.36H81.7v1.79H77.78v1.33h3.76Z"/><path class="cls-1" d="M84.28,29.62V21.36h2.9c.87,1.86,2.12,4.37,2.47,5.39h0c-.09-.86-.11-2.32-.11-3.63V21.36h2.21v8.26H89c-.7-1.5-2.2-4.6-2.59-5.69h0c.08.78.09,2.38.09,3.83v1.86Z"/><path class="cls-1" d="M94.14,28.11l4.12-5H94.33V21.36H101v1.71l-3.89,4.75h4.17l-.26,1.8h-6.9Z"/><path class="cls-1" d="M12.19,15.83a1.31,1.31,0,0,0,.91,1.49c.93.44,1,.62.38,1.47a1.42,1.42,0,0,0,0,1.81c.59.85.53,1-.41,1.46a1.41,1.41,0,0,0-.89,1.58c.09,1-.08,1.14-1.06,1.05a1.41,1.41,0,0,0-1.59.94c-.41.88-.61.95-1.4.39a1.46,1.46,0,0,0-1.9,0c-.79.57-1,.51-1.4-.37a1.44,1.44,0,0,0-1.64-.95c-.93.09-1.12-.1-1-1a1.4,1.4,0,0,0-.92-1.6c-.9-.41-1-.62-.39-1.44a1.42,1.42,0,0,0,0-1.85c-.58-.81-.52-1,.39-1.44a1.43,1.43,0,0,0,.93-1.61c-.09-.94.09-1.13,1-1a1.44,1.44,0,0,0,1.64-1c.38-.84.61-.91,1.35-.38a1.5,1.5,0,0,0,2,0c.76-.55,1-.48,1.38.41a1.42,1.42,0,0,0,1.61.92C12.11,14.59,12.25,14.76,12.19,15.83ZM7.18,24A4.3,4.3,0,1,0,2.89,19.7,4.31,4.31,0,0,0,7.18,24Z"/><path class="cls-1" d="M4.21,33.35,3.66,32c-.25-.61-.51-.72-1.13-.49L1.18,32c-.13-.45,1.28-3.87,2.56-6.3.15.27.28.49.4.72a1.51,1.51,0,0,0,2.3.62,1.08,1.08,0,0,1,1.47,0,1.5,1.5,0,0,0,2.33-.63c.12-.21.23-.43.4-.74.95,2.15,1.89,4.17,2.75,6.23l-.18.13-1.39-.52c-.59-.21-.85-.1-1.09.47s-.39.95-.58,1.42l-.2,0L7.19,27.24,4.44,33.37Z"/><path class="cls-1" d="M7.17,16.37a3.32,3.32,0,1,1-3.3,3.32A3.3,3.3,0,0,1,7.17,16.37Z"/></svg>