<svg id="Layer_1" data-name="Layer 1" xmlns="http://www.w3.org/2000/svg" viewBox="0 0 142.18 50"><defs><style>.cls-1{fill:#fed109;}</style></defs><path class="cls-1" d="M27.38,27.12c.13.72.64,1,1.42,1s1.07-.26,1.07-.74-.37-.74-1.67-1.06c-2.44-.59-2.92-1.48-2.92-2.59,0-1.38,1-2.54,3.31-2.54s3.37,1.21,3.49,2.51H29.74c-.07-.44-.29-.89-1.15-.89-.56,0-.9.21-.9.65s.31.62,1.58.94c2.55.63,3.05,1.55,3.05,2.72,0,1.55-1.2,2.63-3.62,2.63S25.21,28.71,25,27.12Z"/><path class="cls-1" d="M42.75,25.48a4,4,0,0,1-4.23,4.29c-2.78,0-4.12-1.94-4.12-4.28a4,4,0,0,1,4.24-4.28A3.93,3.93,0,0,1,42.75,25.48Zm-5.86,0c0,1.51.51,2.57,1.7,2.57s1.68-1.12,1.68-2.53S39.83,23,38.56,23,36.89,23.92,36.89,25.46Z"/><path class="cls-1" d="M45.29,21.36h3.55a3.82,3.82,0,0,1,4.15,4,4,4,0,0,1-4.19,4.22H45.29Zm2.42,6.51h.93c1.32,0,1.85-.93,1.85-2.47,0-1.37-.5-2.29-1.82-2.29h-1Z"/><path class="cls-1" d="M63.57,25.48a4,4,0,0,1-4.23,4.29c-2.78,0-4.12-1.94-4.12-4.28a4,4,0,0,1,4.24-4.28A3.93,3.93,0,0,1,63.57,25.48Zm-5.86,0c0,1.51.51,2.57,1.7,2.57s1.68-1.12,1.68-2.53S60.65,23,59.38,23,57.71,23.92,57.71,25.46Z"/><path class="cls-1" d="M66.11,21.36h4.11c2,0,2.87,1,2.87,2.15A1.83,1.83,0,0,1,72,25.29a1.94,1.94,0,0,1,1.35,1.87c0,1.35-1,2.46-3.07,2.46H66.11Zm3.7,3.18c.67,0,.94-.34.94-.79s-.38-.76-1-.76H68.46v1.55ZM68.46,28H69.7c.79,0,1.13-.34,1.13-.94s-.32-.88-1.09-.88H68.46Z"/><path class="cls-1" d="M75.71,29.62V21.36h2.9c.87,1.86,2.12,4.37,2.47,5.39h0C81,25.89,81,24.43,81,23.12V21.36h2.21v8.26H80.46c-.71-1.5-2.2-4.6-2.59-5.69h0c.08.78.08,2.38.08,3.83v1.86Z"/><path class="cls-1" d="M88.21,28l-.47,1.61H85.38L88,21.36h3.13l2.71,8.26H91.31L90.81,28Zm2.17-1.79c-.39-1.3-.7-2.45-.89-3.26h0c-.2.89-.51,2.07-.85,3.26Z"/><path class="cls-1" d="M27.21,34.15H24.85V32.36H32v1.79H29.63v6.47H27.21Z"/><path class="cls-1" d="M40.27,37.28H36.51v1.54h4.2l-.27,1.8H34.18V32.36h6.25v1.79H36.51v1.33h3.76Z"/><path class="cls-1" d="M43,32.36h2.43v3.09H48V32.36h2.43v8.26H48V37.24H45.44v3.38H43Z"/><path class="cls-1" d="M53.31,40.62V32.36H56.2c.87,1.86,2.13,4.37,2.48,5.39h0c-.09-.86-.11-2.32-.11-3.63V32.36h2.2v8.26H58.05c-.7-1.5-2.19-4.6-2.58-5.69h0c.07.78.08,2.38.08,3.83v1.86Z"/><path class="cls-1" d="M71.71,36.48a4,4,0,0,1-4.24,4.29c-2.78,0-4.12-1.94-4.12-4.28a4,4,0,0,1,4.25-4.28A3.94,3.94,0,0,1,71.71,36.48Zm-5.86,0c0,1.51.5,2.57,1.7,2.57s1.67-1.12,1.67-2.53S68.78,34,67.52,34,65.85,34.92,65.85,36.46Z"/><path class="cls-1" d="M74.25,32.36h2.42v6.46h3.9l-.27,1.8h-6Z"/><path class="cls-1" d="M90.61,36.48a4,4,0,0,1-4.24,4.29c-2.78,0-4.12-1.94-4.12-4.28a4,4,0,0,1,4.25-4.28A3.94,3.94,0,0,1,90.61,36.48Zm-5.86,0c0,1.51.5,2.57,1.7,2.57s1.67-1.12,1.67-2.53S87.68,34,86.42,34,84.75,34.92,84.75,36.46Z"/><path class="cls-1" d="M100.82,40.62H99.2a6.36,6.36,0,0,1-.16-.75,2.83,2.83,0,0,1-2.41.92c-2.53,0-3.81-1.91-3.81-4.21,0-2.53,1.48-4.37,4.23-4.37,2.5,0,3.64,1.42,3.79,2.69H98.45a1.28,1.28,0,0,0-1.41-1c-1.38,0-1.72,1.27-1.72,2.59s.39,2.57,1.73,2.57a1.31,1.31,0,0,0,1.43-1.44v-.06H97V35.88h3.85Z"/><path class="cls-1" d="M106,32.36v8.26H103.6V32.36Z"/><path class="cls-1" d="M112.3,37.79c0,2-.68,3-2.81,3a5.64,5.64,0,0,1-1.2-.11V38.89c.17,0,.5,0,.73,0,.72,0,.87-.43.87-1V32.36h2.41Z"/><path class="cls-1" d="M117,39l-.48,1.61H114.2l2.61-8.26H120l2.71,8.26h-2.53l-.5-1.61Zm2.17-1.79c-.39-1.3-.71-2.45-.9-3.26h0c-.19.89-.51,2.07-.84,3.26Z"/><path class="cls-1" d="M.72,22.41a.8.8,0,0,1,.9-.74,1.08,1.08,0,0,0,1.25-1.05,3.55,3.55,0,0,1,.38-1c.16-.32.34-.63.53-1-.23-.32-.45-.65-.7-1a.68.68,0,0,1,.07-1c.36-.37.71-.73,1.08-1.08a.63.63,0,0,1,.9-.05l.92.65,2.7-1A.59.59,0,0,0,9,14.83,6.71,6.71,0,0,0,9.18,14a.92.92,0,0,1,1.26-.69.57.57,0,0,1,.22.44c0,.81,0,1.62,0,2.43,0,.35-.13.5-.5.53a6.53,6.53,0,0,0-.05,13c.44,0,.56.21.56.62,0,.7,0,1.41,0,2.11,0,.3.1.67-.39.71s-1-.15-1.08-.63c-.06-.32-.08-.66-.16-1a.53.53,0,0,0-.29-.33c-.44-.18-.91-.29-1.35-.47s-.83-.41-1.26-.63l-1,.71a.62.62,0,0,1-.89-.05c-.38-.36-.75-.73-1.12-1.11a.66.66,0,0,1,0-1c.24-.32.47-.66.62-.87-.36-1-.69-1.85-1-2.72a.53.53,0,0,0-.3-.27,3.11,3.11,0,0,0-.75-.14.83.83,0,0,1-.9-.74Z"/><path class="cls-1" d="M10.67,23.2v4.54c0,.51-.08.57-.58.53A5.13,5.13,0,0,1,10,18.08c.6-.06.66,0,.66.58Z"/><path class="cls-1" d="M11.38,21.78v-.65h4.86c.54,0,.61-.08.62-.63,0-.26,0-.51,0-.77a1,1,0,0,0-.4-1,1,1,0,0,1,.06-1.43,1,1,0,0,1,1.45.09,1,1,0,0,1-.12,1.44.68.68,0,0,0-.32.66c0,.44,0,.88,0,1.31a1,1,0,0,1-.89,1C14.9,21.79,13.17,21.78,11.38,21.78Z"/><path class="cls-1" d="M11.38,25.21v-.62l.41,0h4.54c.82,0,1.2.38,1.21,1.21,0,.27,0,.54,0,.81a1.09,1.09,0,0,0,.4,1.08,1,1,0,0,1-.07,1.43A1,1,0,0,1,16.45,29a1,1,0,0,1,.07-1.44.77.77,0,0,0,.34-.8c0-.32,0-.66,0-1s-.16-.6-.58-.59h-4.9Z"/><path class="cls-1" d="M11.39,19.05v-.69h1.38c.62,0,.64,0,.65-.62,0-.35,0-.69,0-1s.06-.8-.4-1.13a1,1,0,0,1,.1-1.43,1,1,0,0,1,1.42.11,1,1,0,0,1-.11,1.43.72.72,0,0,0-.31.72c0,.49,0,1,0,1.48a1.06,1.06,0,0,1-1.18,1.17Z"/><path class="cls-1" d="M11.38,28v-.66c.65,0,1.27,0,1.89,0s.82.46.84,1.06,0,1.14,0,1.71a.73.73,0,0,0,.23.46A1,1,0,1,1,13,32.11a1,1,0,0,1,.16-1.54.68.68,0,0,0,.23-.42c0-.57,0-1.14,0-1.71,0-.33-.14-.47-.46-.46Z"/><path class="cls-1" d="M11.39,20.42v-.67c1.15,0,2.26,0,3.38,0,.12,0,.24.21.36.32-.13.11-.26.32-.39.33C13.63,20.43,12.53,20.42,11.39,20.42Z"/><path class="cls-1" d="M11.39,26.6v-.68h1.87c.49,0,1,0,1.48,0,.14,0,.26.21.39.33-.12.11-.24.31-.36.31C13.65,26.61,12.53,26.6,11.39,26.6Z"/><path class="cls-1" d="M20.33,22.13a1.12,1.12,0,0,0-1.28.54l0,0a.67.67,0,0,1-.43.14H11.39v.66h7.2a.6.6,0,0,1,.43.13l.09.09a1.07,1.07,0,0,0,.64.47,1.08,1.08,0,1,0,.58-2.07Z"/></svg>