<svg id="Layer_1" data-name="Layer 1" xmlns="http://www.w3.org/2000/svg" viewBox="0 0 142.18 50"><defs><style>.cls-1{fill:#fed109;}</style></defs><path class="cls-1" d="M29.9,25.48a4,4,0,0,1-4.23,4.29c-2.78,0-4.12-1.94-4.12-4.28a4,4,0,0,1,4.24-4.28A3.93,3.93,0,0,1,29.9,25.48Zm-5.86,0C24,27,24.55,28,25.74,28s1.68-1.12,1.68-2.53S27,23,25.71,23,24,23.92,24,25.46Z"/><path class="cls-1" d="M32.44,21.36H36a3.82,3.82,0,0,1,4.15,4A4,4,0,0,1,36,29.62H32.44Zm2.42,6.51h.93c1.32,0,1.85-.93,1.85-2.47,0-1.37-.5-2.29-1.82-2.29h-1Z"/><path class="cls-1" d="M42.69,21.36h2.43v6.46H49l-.26,1.8H42.69Z"/><path class="cls-1" d="M53.59,21.36v8.26H51.16V21.36Z"/><path class="cls-1" d="M64,26.9c-.3,1.73-1.57,2.87-3.84,2.87-2.7,0-4-1.82-4-4.22s1.29-4.34,4.13-4.34c2.43,0,3.53,1.41,3.7,2.84H61.55a1.25,1.25,0,0,0-1.34-1.14c-1.18,0-1.58,1.11-1.58,2.55s.33,2.61,1.6,2.61a1.31,1.31,0,0,0,1.34-1.17Z"/><path class="cls-1" d="M66.34,29.62V21.36h2.9c.87,1.86,2.13,4.37,2.47,5.39h0c-.09-.86-.11-2.32-.11-3.63V21.36h2.21v8.26H71.09c-.7-1.5-2.2-4.6-2.59-5.69h0c.08.78.09,2.38.09,3.83v1.86Z"/><path class="cls-1" d="M84.74,25.48a4,4,0,0,1-4.23,4.29c-2.78,0-4.12-1.94-4.12-4.28a4,4,0,0,1,4.24-4.28A3.93,3.93,0,0,1,84.74,25.48Zm-5.86,0c0,1.51.51,2.57,1.7,2.57s1.68-1.12,1.68-2.53S81.82,23,80.55,23,78.88,23.92,78.88,25.46Z"/><path class="cls-1" d="M89.12,27.12c.14.72.64,1,1.42,1s1.07-.26,1.07-.74-.36-.74-1.67-1.06C87.5,25.75,87,24.86,87,23.75c0-1.38,1-2.54,3.32-2.54s3.36,1.21,3.48,2.51H91.48c-.06-.44-.29-.89-1.15-.89-.55,0-.89.21-.89.65s.3.62,1.57.94c2.55.63,3,1.55,3,2.72,0,1.55-1.19,2.63-3.62,2.63-2.28,0-3.49-1.06-3.68-2.65Z"/><path class="cls-1" d="M98.07,23.15H95.71V21.36h7.13v1.79H100.5v6.47H98.07Z"/><path class="cls-1" d="M59.14,20.85l-1.51-1.64h1.95l.63.75.63-.75h1.93l-1.52,1.64Z"/><path class="cls-1" d="M12.19,15.83a1.31,1.31,0,0,0,.91,1.49c.93.44,1,.62.38,1.47a1.42,1.42,0,0,0,0,1.81c.59.85.53,1-.41,1.46a1.41,1.41,0,0,0-.89,1.58c.09,1-.08,1.14-1.06,1.05a1.41,1.41,0,0,0-1.59.94c-.41.88-.61.95-1.4.39a1.46,1.46,0,0,0-1.9,0c-.79.57-1,.51-1.4-.37a1.44,1.44,0,0,0-1.64-.95c-.93.09-1.12-.1-1-1a1.4,1.4,0,0,0-.92-1.6c-.9-.41-1-.62-.39-1.44a1.42,1.42,0,0,0,0-1.85c-.58-.81-.52-1,.39-1.44a1.43,1.43,0,0,0,.93-1.61c-.09-.94.09-1.13,1-1a1.44,1.44,0,0,0,1.64-1c.38-.84.61-.91,1.35-.38a1.5,1.5,0,0,0,2,0c.76-.55,1-.48,1.38.41a1.42,1.42,0,0,0,1.61.92C12.11,14.59,12.25,14.76,12.19,15.83ZM7.18,24A4.3,4.3,0,1,0,2.89,19.7,4.31,4.31,0,0,0,7.18,24Z"/><path class="cls-1" d="M4.21,33.35,3.66,32c-.25-.61-.51-.72-1.13-.49L1.18,32c-.13-.45,1.28-3.87,2.56-6.3.15.27.28.49.4.72a1.51,1.51,0,0,0,2.3.62,1.08,1.08,0,0,1,1.47,0,1.5,1.5,0,0,0,2.33-.63c.12-.21.23-.43.4-.74.95,2.15,1.89,4.17,2.75,6.23l-.18.13-1.39-.52c-.59-.21-.85-.1-1.09.47s-.39.95-.58,1.42l-.2,0L7.19,27.24,4.44,33.37Z"/><path class="cls-1" d="M7.17,16.37a3.32,3.32,0,1,1-3.3,3.32A3.3,3.3,0,0,1,7.17,16.37Z"/></svg>