<svg id="Layer_1" data-name="Layer 1" xmlns="http://www.w3.org/2000/svg" viewBox="0 0 142.18 50"><defs><style>.cls-1{fill:#fed109;}</style></defs><path class="cls-1" d="M28,26.28H24.25v1.54h4.2l-.27,1.8H21.92V21.36h6.25v1.79H24.25v1.33H28Z"/><path class="cls-1" d="M35.65,29.62l-1.39-2.69h0l-1.41,2.69H30.23L32.8,25.5l-2.51-4.14h2.8l1.29,2.55h0l1.33-2.55h2.54l-2.51,3.89,2.66,4.37Z"/><path class="cls-1" d="M47.46,26.9c-.31,1.73-1.57,2.87-3.84,2.87-2.71,0-4-1.82-4-4.22s1.29-4.34,4.13-4.34c2.42,0,3.53,1.41,3.69,2.84H45a1.26,1.26,0,0,0-1.35-1.14c-1.18,0-1.58,1.11-1.58,2.55s.34,2.61,1.61,2.61A1.29,1.29,0,0,0,45,26.9Z"/><path class="cls-1" d="M55.91,26.28H52.15v1.54h4.2l-.27,1.8H49.82V21.36h6.25v1.79H52.15v1.33h3.76Z"/><path class="cls-1" d="M58.65,21.36h2.43v6.46H65l-.26,1.8H58.65Z"/><path class="cls-1" d="M67.12,21.36h2.43v6.46h3.89l-.26,1.8H67.12Z"/><path class="cls-1" d="M81.69,26.28H77.92v1.54h4.2l-.27,1.8H75.59V21.36h6.25v1.79H77.92v1.33h3.77Z"/><path class="cls-1" d="M84.42,29.62V21.36h2.9c.87,1.86,2.13,4.37,2.47,5.39h0c-.1-.86-.12-2.32-.12-3.63V21.36h2.21v8.26H89.17c-.7-1.5-2.2-4.6-2.58-5.69h0c.08.78.09,2.38.09,3.83v1.86Z"/><path class="cls-1" d="M102.32,26.9c-.3,1.73-1.57,2.87-3.84,2.87-2.7,0-4-1.82-4-4.22s1.29-4.34,4.13-4.34c2.43,0,3.53,1.41,3.69,2.84h-2.4a1.25,1.25,0,0,0-1.35-1.14C97.37,22.91,97,24,97,25.46s.33,2.61,1.6,2.61A1.29,1.29,0,0,0,99.9,26.9Z"/><path class="cls-1" d="M110.77,26.28H107v1.54h4.2l-.27,1.8h-6.26V21.36h6.25v1.79H107v1.33h3.76Z"/><path class="cls-1" d="M12.19,15.83a1.31,1.31,0,0,0,.91,1.49c.93.44,1,.62.38,1.47a1.42,1.42,0,0,0,0,1.81c.59.85.53,1-.41,1.46a1.41,1.41,0,0,0-.89,1.58c.09,1-.08,1.14-1.06,1.05a1.41,1.41,0,0,0-1.59.94c-.41.88-.61.95-1.4.39a1.46,1.46,0,0,0-1.9,0c-.79.57-1,.51-1.4-.37a1.44,1.44,0,0,0-1.64-.95c-.93.09-1.12-.1-1-1a1.4,1.4,0,0,0-.92-1.6c-.9-.41-1-.62-.39-1.44a1.42,1.42,0,0,0,0-1.85c-.58-.81-.52-1,.39-1.44a1.43,1.43,0,0,0,.93-1.61c-.09-.94.09-1.13,1-1a1.44,1.44,0,0,0,1.64-1c.38-.84.61-.91,1.35-.38a1.5,1.5,0,0,0,2,0c.76-.55,1-.48,1.38.41a1.42,1.42,0,0,0,1.61.92C12.11,14.59,12.25,14.76,12.19,15.83ZM7.18,24A4.3,4.3,0,1,0,2.89,19.7,4.31,4.31,0,0,0,7.18,24Z"/><path class="cls-1" d="M4.21,33.35,3.66,32c-.25-.61-.51-.72-1.13-.49L1.18,32c-.13-.45,1.28-3.87,2.56-6.3.15.27.28.49.4.72a1.51,1.51,0,0,0,2.3.62,1.08,1.08,0,0,1,1.47,0,1.5,1.5,0,0,0,2.33-.63c.12-.21.23-.43.4-.74.95,2.15,1.89,4.17,2.75,6.23l-.18.13-1.39-.52c-.59-.21-.85-.1-1.09.47s-.39.95-.58,1.42l-.2,0L7.19,27.24,4.44,33.37Z"/><path class="cls-1" d="M7.17,16.37a3.32,3.32,0,1,1-3.3,3.32A3.3,3.3,0,0,1,7.17,16.37Z"/></svg>