<svg id="Layer_1" data-name="Layer 1" xmlns="http://www.w3.org/2000/svg" viewBox="0 0 142.18 50"><defs><style>.cls-1{fill:#fed109;}</style></defs><path class="cls-1" d="M32.46,26.92c0-1.29,0-3,.06-3.93h-.06c-.35,1.77-.9,4.22-1.51,6.63H29c-.48-2.33-1-4.79-1.34-6.63h-.07c.06,1,.11,2.58.11,4v2.63H25.56V21.36h3.49c.4,1.67.88,4.09,1.07,5.31h0c.21-1.32.76-3.52,1.24-5.31h3.39v8.26H32.46Z"/><path class="cls-1" d="M45.68,25.48a4,4,0,0,1-4.24,4.29c-2.77,0-4.12-1.94-4.12-4.28a4,4,0,0,1,4.25-4.28A3.94,3.94,0,0,1,45.68,25.48Zm-5.86,0c0,1.51.5,2.57,1.7,2.57s1.67-1.12,1.67-2.53S42.75,23,41.49,23,39.82,23.92,39.82,25.46Z"/><path class="cls-1" d="M48.22,21.36h3.55a3.82,3.82,0,0,1,4.15,4,4,4,0,0,1-4.19,4.22H48.22Zm2.42,6.51h.93c1.31,0,1.85-.93,1.85-2.47,0-1.37-.5-2.29-1.82-2.29h-1Z"/><path class="cls-1" d="M64.56,26.28H60.8v1.54H65l-.27,1.8H58.47V21.36h6.25v1.79H60.8v1.33h3.76Z"/><path class="cls-1" d="M69.65,26.5v3.12H67.3V21.36h4.09c2,0,2.89,1,2.89,2.29a2,2,0,0,1-1.24,2c.52.19,1.07.74,1.07,2.14v.34a7.89,7.89,0,0,0,.11,1.54H71.91a6.08,6.08,0,0,1-.17-1.81V27.6c0-.71-.17-1.1-1.24-1.1Zm0-1.69h1.12c.8,0,1.1-.33,1.1-.89S71.52,23,70.78,23H69.65Z"/><path class="cls-1" d="M76.82,29.62V21.36h2.89c.87,1.86,2.13,4.37,2.48,5.39h0c-.1-.86-.12-2.32-.12-3.63V21.36h2.21v8.26H81.56c-.7-1.5-2.2-4.6-2.58-5.69h0c.08.78.09,2.38.09,3.83v1.86Z"/><path class="cls-1" d="M27.21,34.15H24.85V32.36H32v1.79H29.63v6.47H27.21Z"/><path class="cls-1" d="M40.27,37.28H36.51v1.54h4.2l-.27,1.8H34.18V32.36h6.25v1.79H36.51v1.33h3.76Z"/><path class="cls-1" d="M50.62,37.9c-.3,1.73-1.57,2.87-3.84,2.87-2.7,0-4-1.82-4-4.22s1.29-4.34,4.13-4.34c2.43,0,3.53,1.41,3.7,2.84H48.19a1.25,1.25,0,0,0-1.34-1.14c-1.18,0-1.58,1.11-1.58,2.55s.33,2.61,1.6,2.61a1.31,1.31,0,0,0,1.34-1.17Z"/><path class="cls-1" d="M53,32.36h2.43v3.09h2.52V32.36h2.43v8.26H57.93V37.24H55.41v3.38H53Z"/><path class="cls-1" d="M63.28,40.62V32.36h2.9c.86,1.86,2.12,4.37,2.47,5.39h0c-.09-.86-.11-2.32-.11-3.63V32.36h2.2v8.26H68c-.7-1.5-2.19-4.6-2.58-5.69h0c.07.78.08,2.38.08,3.83v1.86Z"/><path class="cls-1" d="M81.68,36.48a4,4,0,0,1-4.24,4.29c-2.77,0-4.12-1.94-4.12-4.28a4,4,0,0,1,4.25-4.28A3.94,3.94,0,0,1,81.68,36.48Zm-5.86,0c0,1.51.5,2.57,1.7,2.57s1.67-1.12,1.67-2.53S78.75,34,77.49,34,75.82,34.92,75.82,36.46Z"/><path class="cls-1" d="M84.22,32.36h2.43v6.46h3.89l-.26,1.8H84.22Z"/><path class="cls-1" d="M100.58,36.48a4,4,0,0,1-4.24,4.29c-2.77,0-4.12-1.94-4.12-4.28a4,4,0,0,1,4.25-4.28A3.94,3.94,0,0,1,100.58,36.48Zm-5.86,0c0,1.51.5,2.57,1.7,2.57s1.67-1.12,1.67-2.53S97.65,34,96.39,34,94.72,34.92,94.72,36.46Z"/><path class="cls-1" d="M110.8,40.62h-1.63a6.21,6.21,0,0,1-.15-.75,2.87,2.87,0,0,1-2.42.92c-2.53,0-3.8-1.91-3.8-4.21,0-2.53,1.47-4.37,4.23-4.37,2.49,0,3.64,1.42,3.79,2.69h-2.4a1.28,1.28,0,0,0-1.41-1c-1.38,0-1.72,1.27-1.72,2.59s.4,2.57,1.73,2.57a1.31,1.31,0,0,0,1.43-1.44v-.06h-1.51V35.88h3.86Z"/><path class="cls-1" d="M115.17,40.62V37.76a.52.52,0,0,0-.09-.32l-2.82-5.08H115c.53,1.16,1.12,2.5,1.5,3.45.34-.91,1-2.39,1.52-3.45h2.52l-2.86,5.07a.55.55,0,0,0-.08.31v2.88Z"/><path class="cls-1" d="M.72,22.41a.8.8,0,0,1,.9-.74,1.08,1.08,0,0,0,1.25-1.05,3.55,3.55,0,0,1,.38-1c.16-.32.34-.63.53-1-.23-.32-.45-.65-.7-1a.68.68,0,0,1,.07-1c.36-.37.71-.73,1.08-1.08a.63.63,0,0,1,.9-.05l.92.65,2.7-1A.59.59,0,0,0,9,14.83,6.71,6.71,0,0,0,9.18,14a.92.92,0,0,1,1.26-.69.57.57,0,0,1,.22.44c0,.81,0,1.62,0,2.43,0,.35-.13.5-.5.53a6.53,6.53,0,0,0-.05,13c.44,0,.56.21.56.62,0,.7,0,1.41,0,2.11,0,.3.1.67-.39.71s-1-.15-1.08-.63c-.06-.32-.08-.66-.16-1a.53.53,0,0,0-.29-.33c-.44-.18-.91-.29-1.35-.47s-.83-.41-1.26-.63l-1,.71a.62.62,0,0,1-.89-.05c-.38-.36-.75-.73-1.12-1.11a.66.66,0,0,1,0-1c.24-.32.47-.66.62-.87-.36-1-.69-1.85-1-2.72a.53.53,0,0,0-.3-.27,3.11,3.11,0,0,0-.75-.14.83.83,0,0,1-.9-.74Z"/><path class="cls-1" d="M10.67,23.2v4.54c0,.51-.08.57-.58.53A5.13,5.13,0,0,1,10,18.08c.6-.06.66,0,.66.58Z"/><path class="cls-1" d="M11.38,21.78v-.65h4.86c.54,0,.61-.08.62-.63,0-.26,0-.51,0-.77a1,1,0,0,0-.4-1,1,1,0,0,1,.06-1.43,1,1,0,0,1,1.45.09,1,1,0,0,1-.12,1.44.68.68,0,0,0-.32.66c0,.44,0,.88,0,1.31a1,1,0,0,1-.89,1C14.9,21.79,13.17,21.78,11.38,21.78Z"/><path class="cls-1" d="M11.38,25.21v-.62l.41,0h4.54c.82,0,1.2.38,1.21,1.21,0,.27,0,.54,0,.81a1.09,1.09,0,0,0,.4,1.08,1,1,0,0,1-.07,1.43A1,1,0,0,1,16.45,29a1,1,0,0,1,.07-1.44.77.77,0,0,0,.34-.8c0-.32,0-.66,0-1s-.16-.6-.58-.59h-4.9Z"/><path class="cls-1" d="M11.39,19.05v-.69h1.38c.62,0,.64,0,.65-.62,0-.35,0-.69,0-1s.06-.8-.4-1.13a1,1,0,0,1,.1-1.43,1,1,0,0,1,1.42.11,1,1,0,0,1-.11,1.43.72.72,0,0,0-.31.72c0,.49,0,1,0,1.48a1.06,1.06,0,0,1-1.18,1.17Z"/><path class="cls-1" d="M11.38,28v-.66c.65,0,1.27,0,1.89,0s.82.46.84,1.06,0,1.14,0,1.71a.73.73,0,0,0,.23.46A1,1,0,1,1,13,32.11a1,1,0,0,1,.16-1.54.68.68,0,0,0,.23-.42c0-.57,0-1.14,0-1.71,0-.33-.14-.47-.46-.46Z"/><path class="cls-1" d="M11.39,20.42v-.67c1.15,0,2.26,0,3.38,0,.12,0,.24.21.36.32-.13.11-.26.32-.39.33C13.63,20.43,12.53,20.42,11.39,20.42Z"/><path class="cls-1" d="M11.39,26.6v-.68h1.87c.49,0,1,0,1.48,0,.14,0,.26.21.39.33-.12.11-.24.31-.36.31C13.65,26.61,12.53,26.6,11.39,26.6Z"/><path class="cls-1" d="M20.33,22.13a1.12,1.12,0,0,0-1.28.54l0,0a.67.67,0,0,1-.43.14H11.39v.66h7.2a.6.6,0,0,1,.43.13l.09.09a1.07,1.07,0,0,0,.64.47,1.08,1.08,0,1,0,.58-2.07Z"/></svg>