<svg id="Layer_1" data-name="Layer 1" xmlns="http://www.w3.org/2000/svg" viewBox="0 0 142.18 50"><defs><style>.cls-1{fill:#fed109;}</style></defs><path class="cls-1" d="M9.62,30.56H8.28c-.43,0-.69-.2-.7-.6a13.7,13.7,0,0,0-1.82-5.52A4.28,4.28,0,0,1,7,19.23a4.32,4.32,0,0,1,6.68,5.07c-.43,1-1,1.93-1.32,2.94a12.28,12.28,0,0,0-.53,2.42c-.11.76-.2.9-1,.9ZM8.75,29.5h.83c.36,0,.82.11,1.06-.07s.16-.63.23-1a16.3,16.3,0,0,1,1.65-4.25,3.29,3.29,0,0,0-.78-4.14A3.27,3.27,0,0,0,6.81,24.2a17.07,17.07,0,0,1,.9,1.94C8.09,27.22,8.39,28.33,8.75,29.5Z"/><path class="cls-1" d="M10.57,15.55c0,.46,0,.93,0,1.39a.93.93,0,1,1-1.85,0V14.22a.93.93,0,1,1,1.85,0C10.58,14.65,10.57,15.1,10.57,15.55Z"/><path class="cls-1" d="M2.59,23.7c-.46,0-.92,0-1.39,0a.91.91,0,1,1,0-1.82q1.44,0,2.88,0a.91.91,0,1,1,0,1.82C3.55,23.71,3.07,23.7,2.59,23.7Z"/><path class="cls-1" d="M16.73,23.7c-.47,0-.93,0-1.4,0a.89.89,0,0,1-1-.91.87.87,0,0,1,1-.91c.92,0,1.85,0,2.78,0a.91.91,0,0,1,1,.94c0,.53-.41.87-1.05.89Z"/><path class="cls-1" d="M6.62,18.73a1.18,1.18,0,0,1-.56.77,1.11,1.11,0,0,1-.95-.1,29.74,29.74,0,0,1-2.19-2.16.88.88,0,0,1,0-1.25.93.93,0,0,1,1.3,0c.7.68,1.39,1.37,2.06,2.08A.91.91,0,0,1,6.62,18.73Z"/><path class="cls-1" d="M16.78,16.64a1.42,1.42,0,0,1-.42.69c-.64.67-1.3,1.32-2,2A.91.91,0,1,1,13.12,18c.65-.67,1.33-1.34,2-2a.81.81,0,0,1,1-.18A1.53,1.53,0,0,1,16.78,16.64Z"/><path class="cls-1" d="M8.77,32.35c-.53.1-.57-.17-.56-.54,0-1-.13-.88.9-.89.52,0,1,0,1.54,0,.34,0,.51.09.47.45a3.38,3.38,0,0,0,0,.45c0,.33,0,.68-.48.54.07.83-.87.63-1.32.63S8.76,32.75,8.77,32.35Z"/><path class="cls-1" d="M24.4,21.36h2.4v3.35c.54-.75,1.76-2.26,2.58-3.35h2.87l-3,3.38,3.14,4.88H29.51l-2-3.31-.73.75v2.56H24.4Z"/><path class="cls-1" d="M34.27,29.62V21.36h2.89c.87,1.86,2.13,4.37,2.48,5.39h0c-.1-.86-.12-2.32-.12-3.63V21.36h2.21v8.26H39c-.7-1.5-2.19-4.6-2.58-5.69h0c.07.78.08,2.38.08,3.83v1.86Z"/><path class="cls-1" d="M52.67,25.48a4,4,0,0,1-4.24,4.29c-2.78,0-4.12-1.94-4.12-4.28a4,4,0,0,1,4.24-4.28A3.94,3.94,0,0,1,52.67,25.48Zm-5.86,0c0,1.51.5,2.57,1.7,2.57s1.67-1.12,1.67-2.53S49.74,23,48.47,23,46.81,23.92,46.81,25.46Z"/><path class="cls-1" d="M56.35,29.62l-2-8.26h2.55a53.84,53.84,0,0,1,.84,5.84h0c.34-1.79.84-3.91,1.26-5.84h2.16c.37,1.67.91,4,1.2,5.74h0c.2-1.71.75-4.47.95-5.74h2.33l-2.09,8.26H61.16C60.8,27.9,60.32,26,60,24.35h0c-.29,1.56-.81,3.67-1.16,5.27Z"/><path class="cls-1" d="M67.84,21.36h2.43v6.46h3.89l-.26,1.8H67.84Z"/><path class="cls-1" d="M82.4,26.28H78.64v1.54h4.2l-.27,1.8H76.31V21.36h6.25v1.79H78.64v1.33H82.4Z"/><path class="cls-1" d="M85.14,21.36h3.55a3.83,3.83,0,0,1,4.16,4,4,4,0,0,1-4.2,4.22H85.14Zm2.43,6.51h.92c1.32,0,1.86-.93,1.86-2.47,0-1.37-.51-2.29-1.83-2.29h-1Z"/><path class="cls-1" d="M103.07,29.62h-1.63a6.21,6.21,0,0,1-.15-.75,2.87,2.87,0,0,1-2.42.92c-2.53,0-3.8-1.91-3.8-4.21,0-2.53,1.48-4.37,4.23-4.37,2.49,0,3.64,1.42,3.79,2.69h-2.4a1.28,1.28,0,0,0-1.4-1c-1.39,0-1.72,1.27-1.72,2.59s.39,2.57,1.72,2.57a1.32,1.32,0,0,0,1.44-1.44v-.06H99.21V24.88h3.86Z"/><path class="cls-1" d="M111.94,26.28h-3.77v1.54h4.2l-.27,1.8h-6.26V21.36h6.26v1.79h-3.93v1.33h3.77Z"/></svg>