<svg id="Layer_1" data-name="Layer 1" xmlns="http://www.w3.org/2000/svg" viewBox="0 0 142.18 50"><defs><style>.cls-1{fill:#fed109;}</style></defs><path class="cls-1" d="M9.62,30.56H8.28c-.43,0-.69-.2-.7-.6a13.7,13.7,0,0,0-1.82-5.52A4.28,4.28,0,0,1,7,19.23a4.32,4.32,0,0,1,6.68,5.07c-.43,1-1,1.93-1.32,2.94a12.28,12.28,0,0,0-.53,2.42c-.11.76-.2.9-1,.9ZM8.75,29.5h.83c.36,0,.82.11,1.06-.07s.16-.63.23-1a16.3,16.3,0,0,1,1.65-4.25,3.29,3.29,0,0,0-.78-4.14A3.27,3.27,0,0,0,6.81,24.2a17.07,17.07,0,0,1,.9,1.94C8.09,27.22,8.39,28.33,8.75,29.5Z"/><path class="cls-1" d="M10.57,15.55c0,.46,0,.93,0,1.39a.93.93,0,1,1-1.85,0V14.22a.93.93,0,1,1,1.85,0C10.58,14.65,10.57,15.1,10.57,15.55Z"/><path class="cls-1" d="M2.59,23.7c-.46,0-.92,0-1.39,0a.91.91,0,1,1,0-1.82q1.44,0,2.88,0a.91.91,0,1,1,0,1.82C3.55,23.71,3.07,23.7,2.59,23.7Z"/><path class="cls-1" d="M16.73,23.7c-.47,0-.93,0-1.4,0a.89.89,0,0,1-1-.91.87.87,0,0,1,1-.91c.92,0,1.85,0,2.78,0a.91.91,0,0,1,1,.94c0,.53-.41.87-1.05.89Z"/><path class="cls-1" d="M6.62,18.73a1.18,1.18,0,0,1-.56.77,1.11,1.11,0,0,1-.95-.1,29.74,29.74,0,0,1-2.19-2.16.88.88,0,0,1,0-1.25.93.93,0,0,1,1.3,0c.7.68,1.39,1.37,2.06,2.08A.91.91,0,0,1,6.62,18.73Z"/><path class="cls-1" d="M16.78,16.64a1.42,1.42,0,0,1-.42.69c-.64.67-1.3,1.32-2,2A.91.91,0,1,1,13.12,18c.65-.67,1.33-1.34,2-2a.81.81,0,0,1,1-.18A1.53,1.53,0,0,1,16.78,16.64Z"/><path class="cls-1" d="M8.77,32.35c-.53.1-.57-.17-.56-.54,0-1-.13-.88.9-.89.52,0,1,0,1.54,0,.34,0,.51.09.47.45a3.38,3.38,0,0,0,0,.45c0,.33,0,.68-.48.54.07.83-.87.63-1.32.63S8.76,32.75,8.77,32.35Z"/><path class="cls-1" d="M23.87,28.11l4.11-5H24.06V21.36h6.69v1.71l-3.9,4.75H31l-.26,1.8h-6.9Z"/><path class="cls-1" d="M33.3,29.62V21.36h2.9c.87,1.86,2.13,4.37,2.47,5.39h0c-.1-.86-.12-2.32-.12-3.63V21.36h2.21v8.26H38.05c-.7-1.5-2.2-4.6-2.58-5.69h0c.08.78.09,2.38.09,3.83v1.86Z"/><path class="cls-1" d="M45.81,28l-.48,1.61H43l2.61-8.26h3.13l2.72,8.26H48.9L48.4,28ZM48,26.22c-.38-1.3-.7-2.45-.89-3.26h0c-.19.89-.51,2.07-.84,3.26Z"/><path class="cls-1" d="M53.5,29.62V21.36h2.9c.86,1.86,2.12,4.37,2.47,5.39h0c-.09-.86-.11-2.32-.11-3.63V21.36H61v8.26H58.25c-.71-1.5-2.2-4.6-2.59-5.69h0c.08.78.08,2.38.08,3.83v1.86Z"/><path class="cls-1" d="M67.28,26.79c0,2-.69,3-2.81,3a5.64,5.64,0,0,1-1.2-.11V27.89c.17,0,.49,0,.73,0,.72,0,.86-.43.86-1V21.36h2.42Z"/><path class="cls-1" d="M76.21,26.28H72.45v1.54h4.2l-.27,1.8H70.12V21.36h6.25v1.79H72.45v1.33h3.76Z"/></svg>